# xmcd CD database file
#
# Track frame offsets:
#	150
#	12564
#	28991
#	41993
#	53933
#	69260
#	82637
#	93821
#	104266
#	119143
#	130015
#	149772
#	162386
#	175910
#	199085
#	209754
#	224584
#	234096
#	244980
#	258095
#	270619
#	285069
#
# Disc length: 4071 seconds
#
# Revision: 0
# Processed by: cddbd v1.5.2PL0 Copyright (c) Steve Scherf et al.
# Submitted via: CDex 1.70beta2
#
DISCID=460fe516
DTITLE=Antonio Carlos Jobim - Composer Of Desafinado, Plays, The
DYEAR=1900
DGENRE=Jazz
TTITLE0=The Girl From Ipanema
TTITLE1=Amor Em Paz (Once I Loved)
TTITLE2=Agua De Beber
TTITLE3=Vivo Sonhando
TTITLE4=O Morro Nao Tem Vez
TTITLE5=Insensatez
TTITLE6=Corcovado
TTITLE7=One Note Samba
TTITLE8=Meditation
TTITLE9=So Danco Samba
TTITLE10=Chega De Saudade
TTITLE11=Desafinado
TTITLE12=Wave
TTITLE13=The Red Blouse
TTITLE14=Look To The Sky
TTITLE15=Batidinha
TTITLE16=Triste
TTITLE17=Mojave
TTITLE18=Dialogo
TTITLE19=Lamento
TTITLE20=Antigua
TTITLE21=Captain Bacardi
EXTD=
EXTT0=
EXTT1=
EXTT2=
EXTT3=
EXTT4=
EXTT5=
EXTT6=
EXTT7=
EXTT8=
EXTT9=
EXTT10=
EXTT11=
EXTT12=
EXTT13=
EXTT14=
EXTT15=
EXTT16=
EXTT17=
EXTT18=
EXTT19=
EXTT20=
EXTT21=
PLAYORDER=
